<?xml version="1.0" standalone="no"?>
<!DOCTYPE svg PUBLIC "-//W3C//DTD SVG 20010904//EN"
 "http://www.w3.org/TR/2001/REC-SVG-20010904/DTD/svg10.dtd">
<svg version="1.0" xmlns="http://www.w3.org/2000/svg"
 width="800.000000pt" height="800.000000pt" viewBox="0 0 800.000000 800.000000"
 preserveAspectRatio="xMidYMid meet">
<metadata>
Created by potrace 1.14, written by Peter Selinger 2001-2017
</metadata>
<g transform="translate(0.000000,800.000000) scale(0.100000,-0.100000)"
fill="#000000" stroke="none">
<path d="M5074 7290 c-43 -17 -67 -72 -79 -180 -3 -30 -11 -80 -17 -110 -6
-30 -11 -115 -11 -187 1 -73 -2 -133 -6 -134 -38 -6 -181 -7 -182 -1 0 4 -2
14 -4 22 -1 8 -5 29 -8 45 -3 17 -13 55 -21 85 -27 92 -28 95 -28 108 -1 6 -5
12 -9 12 -4 0 -7 12 -5 28 7 77 -107 266 -178 296 -65 28 -142 2 -186 -61 -55
-80 -76 -211 -56 -353 3 -25 8 -63 10 -85 2 -22 7 -64 11 -92 l8 -53 -84 -1
c-46 0 -101 -2 -121 -5 -40 -4 -41 -2 -54 71 -4 22 -8 49 -11 60 -2 11 -10 63
-18 115 -16 103 -46 207 -73 249 -64 102 -133 151 -209 145 -146 -10 -203
-150 -183 -454 4 -60 -10 -182 -22 -197 -6 -7 -25 -10 -46 -8 -21 2 -71 7
-112 10 -41 3 -78 9 -83 14 -5 5 -10 80 -12 167 -3 176 -8 213 -37 295 -32 90
-83 133 -175 146 -57 8 -149 -35 -184 -85 -26 -39 -26 -41 -18 -374 2 -81 1
-149 -2 -152 -3 -3 -48 -8 -100 -12 -52 -3 -106 -7 -122 -9 -15 -1 -29 0 -31
4 -2 3 -7 33 -10 67 -4 33 -8 71 -11 85 -9 56 -29 174 -31 179 0 3 -5 20 -9
38 -4 17 -12 32 -18 32 -6 0 -7 3 -4 7 4 3 0 17 -8 30 -9 13 -13 28 -10 34 4
5 2 8 -3 7 -5 -2 -23 11 -39 29 -17 18 -33 29 -37 26 -3 -3 -6 0 -6 9 0 15 -2
16 -65 22 -62 5 -128 -36 -141 -90 -6 -22 3 -279 11 -361 11 -98 11 -125 1
-129 -6 -2 -65 -5 -131 -8 -68 -2 -142 -11 -171 -20 -61 -19 -155 -78 -207
-131 -103 -103 -182 -276 -190 -415 -2 -43 -1 -43 -84 -43 -24 0 -43 -4 -43
-10 0 -5 -6 -4 -14 2 -8 7 -15 8 -18 2 -1 -5 -23 -12 -48 -15 -25 -2 -45 -5
-45 -6 0 -1 -9 -3 -20 -5 -184 -28 -266 -60 -294 -117 -10 -21 -20 -36 -23
-33 -3 4 -9 -27 -9 -50 1 -92 69 -152 194 -171 72 -11 247 -10 247 1 0 5 5 3
10 -5 5 -8 10 -10 10 -5 0 6 15 11 33 13 17 1 49 4 70 6 l38 4 -2 -158 c-1
-135 -3 -159 -17 -165 -8 -3 -88 -8 -176 -11 -234 -8 -276 -19 -357 -95 -54
-51 -66 -87 -44 -128 23 -45 117 -105 185 -117 13 -3 31 -11 39 -17 12 -9 13
-9 8 0 -6 9 1 11 22 8 17 -2 35 -6 40 -9 5 -4 12 -2 16 4 4 7 13 6 27 -1 15
-8 19 -8 14 0 -4 6 -3 11 3 11 5 0 13 -5 16 -10 4 -6 13 -7 23 -1 9 5 33 7 52
4 19 -3 54 -6 77 -6 24 -1 43 -6 43 -10 0 -5 5 -5 10 -2 11 7 12 2 15 -180 l2
-130 -84 0 c-45 0 -83 -2 -83 -5 0 -3 -17 -5 -38 -5 -20 1 -54 -5 -75 -12 -20
-7 -39 -12 -42 -13 -3 0 -6 0 -7 -1 -2 0 -13 -2 -26 -5 -40 -7 -191 -71 -227
-95 -63 -43 -77 -105 -36 -156 19 -23 122 -63 172 -66 16 -1 29 -4 29 -7 0 -6
9 -6 178 -9 68 -2 126 0 129 3 4 3 12 1 20 -5 9 -8 13 -8 13 -1 0 6 11 9 26 6
14 -3 23 -1 20 4 -3 5 6 7 19 4 29 -5 27 5 29 -179 l1 -142 -75 3 c-65 2 -129
-8 -260 -39 -8 -2 -35 -8 -60 -14 -25 -6 -65 -18 -90 -28 -104 -41 -136 -76
-143 -156 -4 -41 -1 -51 29 -85 32 -38 96 -76 146 -86 12 -3 40 -9 60 -15 20
-5 39 -6 42 -3 3 2 12 -1 20 -7 9 -8 16 -8 20 -2 4 5 14 8 24 7 9 -2 38 0 64
4 33 4 48 3 48 -4 0 -7 3 -7 8 1 4 6 20 10 35 9 15 -2 30 0 32 4 3 5 16 7 30
5 14 -1 25 3 25 9 0 6 5 4 10 -4 6 -10 10 -11 10 -2 0 6 5 12 11 12 8 0 10
-45 6 -157 -3 -87 -6 -158 -6 -159 -1 0 -22 -2 -49 -3 -26 0 -58 -4 -72 -7
-14 -2 -81 -6 -150 -8 -145 -4 -225 -26 -303 -83 -116 -85 -113 -230 5 -278
40 -17 158 -28 158 -16 0 9 335 5 349 -3 6 -4 9 -11 6 -16 -3 -6 -7 -76 -7
-158 l-1 -148 -66 -2 c-93 -3 -128 -9 -241 -36 -102 -26 -157 -53 -201 -102
-81 -91 -47 -167 101 -229 37 -15 77 -19 224 -22 99 -2 181 -5 182 -6 1 -1 5
-24 9 -52 14 -109 59 -293 83 -343 53 -108 165 -187 297 -206 51 -8 96 -16
205 -36 58 -11 113 -21 123 -22 16 -3 19 -16 23 -118 2 -63 6 -126 9 -140 2
-14 7 -47 11 -75 11 -90 54 -203 91 -240 29 -29 42 -35 77 -35 69 0 148 71
180 161 11 30 24 57 30 61 7 5 7 8 -2 8 -9 0 -8 6 3 24 11 16 13 26 5 31 -6 3
-8 9 -6 13 5 8 21 136 31 245 1 21 5 40 8 43 4 4 45 8 214 18 l41 3 -1 -66
c-1 -59 5 -126 18 -201 2 -14 6 -41 9 -62 17 -118 83 -245 143 -276 74 -39
180 32 225 150 22 60 28 235 14 386 -7 66 -6 82 5 83 8 0 30 2 49 4 19 2 74 6
121 8 l86 5 2 -137 c3 -324 20 -409 100 -492 46 -48 65 -55 123 -50 29 3 108
52 124 76 27 41 47 166 49 305 2 130 11 257 21 292 4 15 15 16 77 11 40 -3
113 -6 162 -8 107 -3 100 -2 86 -19 -7 -8 -8 -17 -4 -19 5 -3 10 -48 11 -99 3
-84 7 -155 16 -243 10 -101 36 -186 66 -216 20 -21 78 -49 103 -49 46 0 137
64 137 97 0 6 4 13 10 15 5 1 11 12 13 23 2 11 7 28 11 37 4 9 5 21 3 25 -3 5
-2 15 3 23 5 9 5 19 -2 27 -6 7 -6 13 -1 13 5 0 9 30 8 68 0 99 29 301 44 303
3 0 64 2 135 4 l129 4 -8 -112 c-4 -62 -7 -132 -6 -157 3 -71 31 -222 48 -258
17 -36 69 -83 100 -90 62 -14 183 12 183 40 0 5 4 7 9 3 5 -3 18 8 27 24 10
17 21 28 26 25 8 -5 12 10 9 34 -1 6 2 12 6 12 4 0 9 46 9 103 1 56 5 145 10
197 4 52 8 110 8 128 l0 33 103 -4 c57 -3 106 -7 109 -9 2 -3 6 -39 9 -80 2
-40 9 -95 14 -121 6 -26 14 -75 17 -109 7 -74 58 -211 87 -239 28 -26 75 -38
110 -28 26 7 119 69 104 69 -4 0 0 14 9 31 9 17 18 41 20 53 2 11 6 32 9 46 3
14 8 48 11 75 3 28 10 55 15 61 5 6 5 14 1 18 -4 4 -7 20 -8 34 0 15 -4 59 -8
98 -7 80 -1 89 54 78 17 -4 52 1 82 11 29 9 60 19 68 20 29 7 127 43 156 58
43 23 114 86 114 103 0 8 4 14 9 14 11 0 60 75 64 97 1 10 6 23 10 30 4 6 8
23 9 37 1 14 6 26 10 26 4 0 5 9 3 20 -2 11 -1 20 3 20 4 0 8 12 9 28 2 40 14
96 21 102 4 3 8 21 8 40 2 54 8 80 16 80 4 0 10 1 13 1 54 14 114 25 128 23 9
-1 17 3 17 9 0 7 5 5 10 -3 5 -8 10 -10 10 -4 0 5 10 10 23 11 97 5 209 23
226 37 12 8 13 8 7 -1 -10 -18 9 -16 28 2 8 9 19 15 23 15 4 -1 17 2 28 6 11
3 24 7 28 8 4 0 12 8 17 16 5 8 10 11 10 7 0 -9 53 26 80 52 39 38 53 127 22
138 -7 3 -11 12 -8 20 3 8 1 11 -4 8 -6 -3 -10 -1 -10 6 0 7 -3 9 -7 6 -3 -4
-16 -1 -27 6 -12 7 -37 15 -56 17 -54 8 -278 5 -345 -4 -106 -14 -184 -14
-190 1 -2 8 -1 11 5 8 5 -3 9 9 8 27 0 18 2 95 4 171 2 85 -1 139 -7 141 -5 3
-4 5 3 5 7 1 10 5 7 11 -3 6 4 11 17 11 13 1 52 3 88 4 285 14 441 41 506 90
17 13 35 21 39 17 5 -4 5 -2 2 5 -4 6 -3 13 2 15 5 1 11 10 13 18 2 8 7 18 11
21 10 7 -8 89 -21 98 -5 3 -14 16 -20 28 -7 12 -42 36 -79 54 -86 40 -201 49
-344 26 -138 -23 -202 -30 -196 -20 2 4 8 36 11 70 6 53 14 120 20 158 2 13
141 52 211 58 83 8 188 35 262 68 79 35 103 70 103 150 0 49 -4 61 -29 85 -81
80 -109 90 -281 94 -74 1 -153 4 -175 6 -22 1 -49 3 -60 3 -19 1 -20 7 -19
151 1 83 3 152 5 154 2 2 27 7 54 10 28 3 61 8 75 10 24 4 51 8 160 21 99 13
115 16 159 36 56 25 80 45 96 83 11 26 10 36 -8 73 -12 24 -25 43 -29 43 -4 0
-8 5 -8 10 0 11 -38 51 -45 48 -2 -2 -13 4 -23 12 -33 27 -73 32 -274 34 -96
0 -168 -3 -168 -8 0 -15 -11 1 -15 21 -1 10 -6 56 -10 103 -7 82 -10 109 -19
185 -5 33 -4 35 27 37 18 0 37 2 42 3 6 1 39 5 75 10 75 11 83 12 90 15 6 2
27 6 65 13 17 3 64 13 105 22 41 9 80 18 85 19 6 1 20 8 33 14 12 7 22 11 22
8 0 -2 15 10 32 26 25 23 33 39 34 69 0 22 -3 39 -8 39 -4 0 -8 6 -8 13 0 14
-60 87 -60 72 0 -5 -4 -4 -9 3 -4 7 -18 14 -29 15 -12 1 -22 5 -22 9 0 4 -7 8
-15 8 -8 0 -15 6 -15 13 0 9 -2 9 -8 0 -6 -9 -47 -12 -47 -3 0 2 -197 2 -205
0 -33 -6 -191 -3 -193 5 -3 8 -2 135 3 345 0 13 15 16 83 16 45 0 132 3 192 7
61 4 142 9 182 12 123 8 197 67 186 150 -6 44 -43 92 -86 111 -36 17 -58 20
-145 23 -18 0 -31 5 -28 9 3 5 -1 9 -9 9 -8 0 -15 -4 -15 -8 0 -9 -33 -6 -41
5 -4 4 -16 3 -28 -3 -16 -9 -21 -9 -21 0 0 8 -4 8 -15 -1 -12 -10 -15 -10 -15
0 0 10 -3 10 -15 0 -11 -9 -15 -9 -15 -1 0 7 -5 9 -12 4 -19 -11 -37 -12 -44
-2 -3 5 -11 6 -17 2 -6 -4 -44 -8 -84 -9 -84 -3 -78 -11 -93 121 -16 137 -19
155 -42 223 -26 75 -93 162 -160 208 -55 37 -158 74 -226 81 -26 2 -56 6 -67
8 -11 2 -25 4 -31 4 -6 1 -14 27 -17 59 -4 31 -9 71 -12 87 -3 17 -13 68 -21
115 -23 131 -45 221 -66 265 -23 51 -84 117 -125 139 -57 29 -82 22 -140 -40
-29 -31 -51 -60 -48 -64 3 -5 1 -11 -5 -15 -10 -6 -35 -86 -45 -144 -3 -18 -6
-100 -7 -183 l-1 -149 -46 5 c-107 12 -156 18 -159 21 -1 1 -4 18 -7 36 -12
113 -19 154 -41 244 -54 220 -153 346 -271 344 -21 0 -48 -4 -59 -9z"/>
</g>
</svg>
