<?xml version="1.0" standalone="no"?>
<!DOCTYPE svg PUBLIC "-//W3C//DTD SVG 20010904//EN"
 "http://www.w3.org/TR/2001/REC-SVG-20010904/DTD/svg10.dtd">
<svg version="1.0" xmlns="http://www.w3.org/2000/svg"
 width="511.000000pt" height="511.000000pt" viewBox="0 0 511.000000 511.000000"
 preserveAspectRatio="xMidYMid meet">
<metadata>
Created by potrace 1.14, written by Peter Selinger 2001-2017
</metadata>
<g transform="translate(0.000000,511.000000) scale(0.100000,-0.100000)"
fill="#000000" stroke="none">
<path d="M2218 4781 c-24 -14 -38 -37 -56 -91 -2 -8 -6 -80 -8 -160 -1 -80 -3
-148 -3 -151 -1 -5 -115 -25 -194 -34 -49 -5 -57 14 -57 138 -1 156 -6 201
-29 237 -32 54 -98 75 -155 49 -43 -20 -56 -75 -62 -264 -3 -76 -7 -141 -10
-144 -3 -3 -22 -6 -43 -8 -21 -1 -58 -4 -83 -6 -25 -3 -50 -2 -55 2 -8 5 -22
60 -59 236 -2 11 -7 35 -10 54 -9 47 -85 123 -116 117 -13 -3 -27 -5 -31 -5
-4 -1 -15 -17 -23 -38 -12 -28 -16 -76 -15 -204 0 -105 -4 -171 -11 -175 -5
-4 -35 -8 -66 -9 -32 -2 -73 -10 -92 -17 -43 -17 -123 -58 -130 -67 -3 -4 -22
-17 -42 -29 -20 -13 -51 -39 -68 -60 -17 -20 -39 -46 -49 -57 -19 -21 -41 -61
-61 -110 -21 -51 -26 -58 -41 -61 -7 -1 -27 -5 -44 -8 -16 -4 -50 -9 -75 -13
-148 -19 -261 -99 -227 -159 32 -57 93 -77 239 -78 59 -1 111 -5 117 -11 5 -5
13 -41 16 -80 4 -38 9 -82 10 -97 5 -38 2 -39 -110 -53 -68 -8 -122 -23 -168
-46 -58 -30 -77 -54 -77 -98 0 -58 39 -73 200 -79 69 -2 131 -9 138 -15 10 -8
12 -33 7 -105 -7 -102 -17 -142 -37 -143 -94 -6 -168 -19 -207 -36 -110 -48
-133 -69 -124 -115 12 -61 83 -86 239 -82 120 3 126 -1 130 -79 11 -179 7
-197 -44 -198 -140 -2 -193 -12 -250 -47 -45 -29 -69 -75 -57 -112 5 -16 49
-49 75 -55 3 -1 12 -5 21 -9 17 -8 85 -10 197 -6 40 1 75 0 77 -2 11 -10 11
-240 1 -253 -6 -7 -40 -16 -75 -19 -35 -4 -85 -11 -110 -16 -25 -5 -58 -12
-72 -14 -29 -5 -97 -45 -117 -69 -19 -22 -18 -75 1 -95 18 -18 119 -24 172
-11 17 4 68 9 115 11 l85 3 1 -125 c1 -69 -2 -132 -6 -140 -6 -9 -26 -15 -57
-17 -65 -2 -131 -11 -143 -18 -6 -4 -23 -9 -38 -11 -48 -9 -136 -58 -149 -84
-17 -34 0 -58 62 -89 43 -22 62 -25 196 -27 81 -1 152 -4 157 -8 5 -3 12 -27
15 -53 17 -129 37 -181 90 -235 60 -62 114 -80 252 -86 66 -2 124 -8 129 -12
4 -5 8 -65 7 -133 -2 -120 0 -129 30 -207 18 -45 43 -89 56 -100 55 -43 123
16 138 120 3 25 9 59 12 75 2 17 6 74 8 127 1 62 7 104 15 113 17 21 186 20
194 0 2 -7 5 -51 5 -97 0 -45 3 -101 6 -123 20 -140 24 -157 42 -185 61 -93
135 -93 184 0 15 30 20 249 7 323 -5 27 -6 53 -1 58 5 5 65 10 133 11 l125 3
0 -135 c0 -74 3 -140 7 -146 4 -7 10 -29 14 -50 3 -22 10 -43 14 -49 5 -5 9
-13 9 -18 3 -32 16 -56 40 -70 27 -16 30 -16 62 6 39 26 63 82 74 172 10 75
10 187 1 241 -6 36 -4 42 16 50 24 10 234 12 243 2 6 -5 10 -48 20 -218 3 -58
11 -121 17 -140 13 -44 49 -100 64 -100 7 0 14 -6 17 -14 4 -10 15 -13 33 -10
38 7 41 10 66 57 19 38 21 59 22 229 1 103 5 190 9 194 12 12 198 6 213 -7 11
-9 12 -29 8 -84 -5 -54 -2 -86 10 -123 9 -27 18 -60 21 -73 12 -68 31 -113 57
-139 25 -25 35 -28 82 -27 44 2 58 7 75 27 19 24 20 36 18 225 l-2 200 90 3
c144 5 131 24 127 -197 -3 -105 -2 -201 2 -214 8 -32 65 -60 103 -50 32 8 40
10 52 12 13 1 51 56 58 83 3 13 6 91 7 175 1 83 4 154 7 157 3 3 21 8 40 10
113 16 176 43 235 101 29 28 75 71 103 97 28 26 50 51 49 55 0 5 1 15 4 23 3
8 13 36 23 62 17 50 23 53 95 63 25 3 56 10 70 15 14 5 77 21 140 35 126 29
177 54 186 90 12 49 -33 107 -92 121 -40 8 -153 9 -251 1 -61 -6 -84 -4 -89 5
-12 18 -5 260 7 275 6 6 18 11 27 11 16 -1 65 5 164 18 108 14 130 19 156 33
11 6 22 8 25 5 7 -7 47 46 47 64 0 8 -9 29 -20 47 -34 55 -82 68 -265 72 -103
2 -162 8 -166 15 -11 18 -3 198 9 210 6 6 40 12 74 14 208 9 304 37 328 95 13
31 7 74 -16 104 -14 19 -27 20 -204 20 -113 0 -193 4 -199 10 -5 6 -11 63 -13
128 -3 129 -1 136 57 138 98 3 217 22 268 44 18 7 52 32 76 54 36 34 42 45 39
73 -3 29 -8 35 -53 51 -51 19 -158 20 -230 1 -16 -4 -55 -8 -85 -8 l-55 -1 0
119 c0 73 4 124 11 130 6 6 82 24 170 39 191 34 228 50 232 98 2 24 -4 44 -17
61 -36 46 -186 70 -332 53 -31 -3 -50 -1 -56 8 -14 18 -42 263 -31 272 2 1 73
5 158 8 230 8 307 40 275 114 -27 63 -173 115 -330 118 -49 2 -93 3 -96 4 -3
0 -12 31 -19 68 -14 65 -64 163 -98 190 -46 37 -93 61 -157 81 -39 12 -76 22
-82 22 -26 0 -62 24 -67 44 -3 11 -8 57 -11 101 -3 44 -13 103 -21 131 -24 77
-90 144 -143 144 -33 0 -76 -72 -97 -162 -3 -13 -6 -69 -6 -125 0 -60 -4 -105
-10 -109 -6 -4 -42 -6 -82 -5 -78 1 -98 15 -102 70 -11 142 -52 295 -89 335
-26 28 -71 34 -119 16 -47 -17 -55 -53 -55 -223 1 -86 -2 -161 -6 -168 -6 -8
-31 -10 -89 -5 -44 3 -84 6 -89 6 -12 0 -24 40 -31 105 -4 33 -8 71 -11 85 -2
14 -7 47 -10 74 -10 79 -38 119 -111 153 -48 23 -101 9 -130 -35 -20 -29 -22
-43 -19 -120 2 -48 5 -96 8 -107 19 -74 23 -104 16 -123 -8 -20 -16 -22 -81
-23 -101 -1 -142 1 -151 10 -4 4 -12 36 -18 72 -14 89 -15 95 -33 173 -23 95
-66 153 -121 161 -5 1 -22 -5 -37 -14z"/>
</g>
</svg>
